<svg id="Delinea_Platform" data-name="Delinea Platform" xmlns="http://www.w3.org/2000/svg" viewBox="0 0 400 400"><defs><style>.cls-1{fill:none;}.cls-2{fill:#00ff5a;}.cls-3{fill:#231556;}</style></defs><polygon class="cls-1" points="222.55 198.74 300.75 307.88 329.3 307.88 329.3 241.45 329.3 90.54 300.7 90.54 222.55 198.74"/><polygon class="cls-2" points="117.08 53.94 70.7 53.94 70.7 90.94 33.7 90.94 33.7 257.4 70.7 257.4 70.7 90.94 98.2 90.94 176.59 199.17 199.41 167.59 117.08 53.94"/><path class="cls-3" d="M281.79,53.54,199.4,167.59l-22.81,31.58L97.78,308.28H70.7V285.67h-37v59.61h83l83-114.91,82,114.51H366.3V53.54ZM329.3,241.45v66.43H300.75l-78.2-109.14L300.7,90.54h28.6Z"/></svg>